# xmcd
#
# Track frame offsets:
#	150
#	23480
#	45557
#	72712
#	106302
#	138287
#	172030
#	188610
#	207870
#	237267
#
# Disc length: 3427 seconds
#
# Revision: 0
# Processed by: cddbd v1.5.2PL0 Copyright (c) Steve Scherf et al.
# Submitted via: EasyCDDAExtractor 16.0.9.1
#
DISCID=850d610a
DTITLE=Various Artist - MMCD06: Mùa Thu Tiền Chiến
DYEAR=1997
DGENRE=Country
TTITLE0=Thu Hà - Nỗi Lòng (Nguyễn Văn Khánh)
TTITLE1=Hoàng Dũng - Mùa Thu Không Trở Lại (Phạm Trọng Cầu)
TTITLE2=Bảo Yến - Trăng Mờ Bên Suối ( Lê Mộng Nguyên)
TTITLE3=Thu Hà - Tà Áo Xanh (Đoàn Chuẩn - Từ Linh)
TTITLE4=Hồng Nhung - Cô Láng Giềng (Hoàng Quý)
TTITLE5=Lệ Thu - Thu Quyến Rũ (Đoàn Chuẩn - Từ Linh)
TTITLE6=Bảo Yến - Mộng Chiều Xuân (Ngọc Bích)
TTITLE7=Hồng Nhung - Thoi Tơ (Đức Quỳnh)
TTITLE8=Phương Thanh - Biệt Ly (Dzoãn Mẫn)
TTITLE9=Hồng Nhung - Gái Xuân (Nhạc: Từ Vũ, Thơ: Nguyễn Bính)
EXTD=
EXTT0=
EXTT1=
EXTT2=
EXTT3=
EXTT4=
EXTT5=
EXTT6=
EXTT7=
EXTT8=
EXTT9=
PLAYORDER=
